<svg xmlns="http://www.w3.org/2000/svg" xmlns:xlink="http://www.w3.org/1999/xlink" width="42" height="42"><defs><linearGradient id="b" x1="992.183" x2="1019.298" y1="516.081" y2="545.959" gradientTransform="translate(-1332.367 316.47) scale(1.34562)" gradientUnits="userSpaceOnUse" xlink:href="#a"/><linearGradient id="a"><stop offset="0" stop-color="#ff1679"/><stop offset="1" stop-color="#ff770b"/></linearGradient></defs><g transform="translate(0 -1010.362)"><rect width="42" height="42" y="1010.362" fill="url(#b)" rx="8.876" ry="8.876"/><path style="line-height:normal;text-indent:0;text-align:start;text-decoration-line:none;text-decoration-style:solid;text-decoration-color:#000;text-transform:none;block-progression:tb;isolation:auto;mix-blend-mode:normal" fill="#fff" d="M22.926 1017.187c-1.52-.01-3.387.267-4.888 1.13a10.172 10.172 0 0 0-5.338 7.397l-3.647 7.244a.5.5 0 0 0 .448.727h1.433v5.043a.5.5 0 0 0 .5.5h3.98l.64 5.863a.5.5 0 1 0 .993-.11l-.687-6.306a.5.5 0 0 0-.496-.447h-3.93v-5.043a.5.5 0 0 0-.5-.5h-1.12l3.296-6.555a.5.5 0 0 0 .047-.148 9.17 9.17 0 0 1 4.851-6.783.5.5 0 0 0 .02-.012c1.676-.968 4.222-1.109 5.635-.918a9.266 9.266 0 0 1 3.047 1.021c1.264.73 2.162 1.49 3.017 2.637a9.143 9.143 0 0 1 1.707 6.527c-.008.066-.022.166-.031.227l-4.406 9.62a.5.5 0 0 0-.043.253l.562 6.508a.5.5 0 1 0 .996-.086l-.55-6.377 4.38-9.57a.5.5 0 0 0 .041-.137s.03-.201.043-.319a10.146 10.146 0 0 0-1.894-7.24.5.5 0 0 0-.002 0c-.933-1.25-1.971-2.129-3.324-2.91a.5.5 0 0 0-.012-.01 10.272 10.272 0 0 0-3.38-1.135.5.5 0 0 0-.009 0 10.787 10.787 0 0 0-1.379-.094zm.659 3.351c-.827.037-1.59.683-1.67 1.577-.047.273.108.389.181.6h-2.418a.5.5 0 0 0-.5.5v2.464c-.782-.203-1.627-.047-1.984.756-.531 1.045.151 2.357 1.32 2.502.245.038.432-.16.664-.223v2.461a.5.5 0 0 0 .5.5h3.088a.5.5 0 0 0 .336-.87c-.336-.305-.228-1.019.184-1.21a.5.5 0 0 0 .035-.02c.378-.213.99.077 1.07.504a.5.5 0 0 0 .004.021.792.792 0 0 1-.209.707.5.5 0 0 0 .346.861h2.996a.5.5 0 0 0 .416-.119l.008-.01a.5.5 0 0 0 .16-.46v-3.005a.5.5 0 0 0-.86-.345.79.79 0 0 1-.656.22.5.5 0 0 0-.021 0c-.444-.052-.768-.675-.56-1.07a.5.5 0 0 0 .017-.037c.182-.428.903-.536 1.21-.197a.5.5 0 0 0 .87-.338v-2.92l-.1.127a.5.5 0 0 0-.39-.81h-2.46c.205-.784.05-1.63-.753-1.989a1.649 1.649 0 0 0-.824-.18zm.046 1.008a.622.622 0 0 1 .332.06.5.5 0 0 0 .036.017c.428.185.536.908.197 1.217a.5.5 0 0 0 .336.87h2.58v1.974c-.782-.202-1.626-.045-1.983.758-.529 1.044.153 2.354 1.32 2.5.245.037.431-.158.663-.221v1.953h-1.977c.074-.272.294-.5.23-.783-.218-1.122-1.505-1.728-2.51-1.182-.776.372-.926 1.2-.726 1.969h-1.95v-2.596a.5.5 0 0 0-.862-.347.784.784 0 0 1-.654.22.5.5 0 0 0-.022 0c-.444-.052-.77-.677-.562-1.072a.5.5 0 0 0 .017-.037c.183-.428.903-.536 1.211-.197a.5.5 0 0 0 .871-.336v-2.594h2.557a.5.5 0 0 0 .398-.805c-.115-.15-.268-.547-.252-.629a.5.5 0 0 0 .01-.068c.023-.345.39-.633.74-.667z" color="#000" font-family="sans-serif" font-weight="400" overflow="visible"/></g></svg>